<?xml version="1.0" encoding="UTF-8"?>
<svg version="1.1" xmlns="http://www.w3.org/2000/svg" width="534" height="512">
<path d="M0 0 C176.22 0 352.44 0 534 0 C534 168.96 534 337.92 534 512 C357.78 512 181.56 512 0 512 C0 343.04 0 174.08 0 0 Z " fill="#FDFDFD" transform="translate(0,0)"/>
<path d="M0 0 C10.79633855 -0.23222689 21.59207827 -0.40964552 32.39041042 -0.51812172 C37.40529853 -0.57020038 42.41847187 -0.64077026 47.43237305 -0.75439453 C52.27602399 -0.86346718 57.11803157 -0.92292626 61.96281624 -0.94877243 C63.80613127 -0.9671773 65.64936141 -1.00312161 67.49197197 -1.05730057 C81.83284461 -1.46200103 81.83284461 -1.46200103 87.08596802 2.08184814 C90.33650425 5.56553073 92.50978713 8.99368831 94.59275818 13.2696228 C95.71283517 16.1023171 95.71283517 16.1023171 98 17 C98 17.66 98 18.32 98 19 C98.66 19 99.32 19 100 19 C100.45375 20.093125 100.9075 21.18625 101.375 22.3125 C103.89570735 27.40792985 107.64783553 31.13409158 111.515625 35.2421875 C120 44.66037736 120 44.66037736 120 49 C120.66 49 121.32 49 122 49 C122.495 49.94875 122.99 50.8975 123.5 51.875 C125.93582963 56.21713107 129.12084704 59.83512819 132.390625 63.5703125 C134.2797061 66.42227474 134.59534341 67.64921764 134 71 C132.57421875 73.3515625 132.57421875 73.3515625 130.6875 75.625 C130.07261719 76.38039063 129.45773437 77.13578125 128.82421875 77.9140625 C127 80 127 80 125.34375 81.60546875 C123.52268447 83.49535362 122.8609858 85.54950196 122 88 C121.34 88 120.68 88 120 88 C119.76925781 88.69351563 119.53851563 89.38703125 119.30078125 90.1015625 C117.73049767 93.60051269 115.56479538 96.40261952 113.1875 99.375 C112.28313314 100.52938341 111.37947949 101.68432595 110.4765625 102.83984375 C110.04633789 103.38753418 109.61611328 103.93522461 109.17285156 104.49951172 C105.57644666 109.10057427 102.46630168 113.67798059 100 119 C99.34 119 98.68 119 98 119 C97.62875 119.86625 97.62875 119.86625 97.25 120.75 C95.81700012 123.32939979 94.21575324 125.06121592 92 127 C91.34 127 90.68 127 90 127 C89.690625 127.78375 89.38125 128.5675 89.0625 129.375 C88 132 88 132 87 134 C86.34 134 85.68 134 85 134 C84.59587891 135.09828125 84.59587891 135.09828125 84.18359375 136.21875 C83.03614141 138.91507365 81.72584792 141.09597553 80.0625 143.5 C78.35186199 145.99311962 76.75200365 148.43399361 75.25 151.0625 C74.8375 151.701875 74.425 152.34125 74 153 C73.34 153 72.68 153 72 153 C71.67 154.32 71.34 155.64 71 157 C70.34 157 69.68 157 69 157 C67.79371992 159.33214148 66.8345262 161.49642139 66 164 C65.34 164 64.68 164 64 164 C63.75507813 164.54527344 63.51015625 165.09054687 63.2578125 165.65234375 C61.71927408 168.52396359 59.85356048 170.97382593 57.875 173.5625 C57.05920369 174.63619321 56.24411348 175.71042324 55.4296875 176.78515625 C55.02073242 177.32414551 54.61177734 177.86313477 54.19042969 178.41845703 C52.4300484 180.75720805 50.71471125 183.12763844 49 185.5 C46.32489503 189.19269392 43.6173766 192.85699049 40.875 196.5 C36.86443069 201.83120739 32.89475252 207.19160656 28.9375 212.5625 C28.32640381 213.39185059 27.71530762 214.22120117 27.08569336 215.07568359 C24.01694663 219.24512678 20.96416652 223.42485896 17.9375 227.625 C14.39387778 232.50423583 10.76889738 237.3204391 7.125 242.125 C6.55257568 242.88506348 5.98015137 243.64512695 5.39038086 244.42822266 C4.8516333 245.1351123 4.31288574 245.84200195 3.7578125 246.5703125 C3.2745752 247.20727051 2.79133789 247.84422852 2.29345703 248.50048828 C1 250 1 250 -1 251 C-1.33 251.99 -1.66 252.98 -2 254 C-23.12 254 -44.24 254 -66 254 C-63.73244782 247.19734345 -63.73244782 247.19734345 -61.5625 244.25 C-61.15128906 243.67765625 -60.74007812 243.1053125 -60.31640625 242.515625 C-59 241 -59 241 -56 239 C-54.78715124 235.94570927 -54.78715124 235.94570927 -54 233 C-53.34 233 -52.68 233 -52 233 C-51.67 231.68 -51.34 230.36 -51 229 C-50.34 229 -49.68 229 -49 229 C-48.7628125 228.30132812 -48.525625 227.60265625 -48.28125 226.8828125 C-46.7623217 223.46522382 -44.78390729 220.83369808 -42.5 217.875 C-40.25337435 214.95001012 -38.04601541 212.06902312 -36 209 C-35.34 209 -34.68 209 -34 209 C-34 208.34 -34 207.68 -34 207 C-33.54625 206.566875 -33.0925 206.13375 -32.625 205.6875 C-30.65690769 203.64371183 -29.93273129 201.65469676 -29 199 C-28.34 199 -27.68 199 -27 199 C-26.75378906 198.29230469 -26.50757813 197.58460938 -26.25390625 196.85546875 C-24.83901388 193.63339299 -23.0502469 191.12310522 -20.9375 188.3125 C-18.24079956 184.79692983 -18.24079956 184.79692983 -16 181 C-15.34 181 -14.68 181 -14 181 C-13.71125 180.4225 -13.4225 179.845 -13.125 179.25 C-12.08333333 177.16666667 -11.04166667 175.08333333 -10 173 C-9.34 173 -8.68 173 -8 173 C-8 172.34 -8 171.68 -8 171 C-7.34 171 -6.68 171 -6 171 C-5.74863281 170.11441406 -5.49726563 169.22882813 -5.23828125 168.31640625 C-3.95882709 164.88972934 -2.50985626 162.73942505 -0.1875 159.9375 C0.5240625 159.07511719 1.235625 158.21273437 1.96875 157.32421875 C4 155 4 155 6.8125 152.25 C9.30097402 149.69042673 10.51844988 147.23247299 12 144 C13.5625 141.125 13.5625 141.125 15 139 C15.66 139 16.32 139 17 139 C17 138.34 17 137.68 17 137 C17.66 137 18.32 137 19 137 C19.226875 136.13375 19.45375 135.2675 19.6875 134.375 C21.24830347 130.36150535 23.18431521 128.23803751 26 125 C26.350625 124.236875 26.70125 123.47375 27.0625 122.6875 C27.371875 122.130625 27.68125 121.57375 28 121 C28.61875 120.896875 29.2375 120.79375 29.875 120.6875 C33.40936088 119.5440303 34.37429716 116.11539071 36 113 C39.17137772 107.8318289 43.01915262 103.35659431 46.9765625 98.78125 C49.08015091 95.88983118 49.96255559 93.39310947 51 90 C52.31266518 88.64631404 53.64567325 87.31200404 55 86 C56.25436187 83.36777038 56.25436187 83.36777038 57 81 C57.66 81 58.32 81 59 81 C59.28875 80.21625 59.5775 79.4325 59.875 78.625 C61 76 61 76 63 74 C62.71303287 71.34555407 62.05566303 69.13811821 61.05859375 66.6640625 C60 64 60 64 59.30078125 61.32421875 C57.98007112 57.80058501 57.05724472 56.2789588 54 54 C50.12075542 53.1635259 46.33438445 53.06402155 42.375 53.0625 C41.33641846 53.05887451 40.29783691 53.05524902 39.2277832 53.05151367 C33.17474802 53.16325823 33.17474802 53.16325823 28.4140625 56.55859375 C27.94742188 57.36425781 27.48078125 58.16992188 27 59 C26.34 59 25.68 59 25 59 C24.8453125 60.423125 24.8453125 60.423125 24.6875 61.875 C24 65 24 65 21 67 C19.98412667 68.65703928 18.98589867 70.32495326 18 72 C16.66012889 73.59272617 15.28436278 75.1559231 13.875 76.6875 C11.11427956 79.62192394 11.11427956 79.62192394 9 83 C8.34 83 7.68 83 7 83 C6.7834375 83.66 6.566875 84.32 6.34375 85 C4.53645329 89.03489498 2.07514635 92.42001644 -0.5 96 C-1.30195801 97.12559326 -1.30195801 97.12559326 -2.12011719 98.27392578 C-6.18051096 103.94040409 -10.37816961 109.48472384 -14.67578125 114.97265625 C-17.6931254 118.9028104 -20.51352424 122.96029331 -23.30859375 127.05078125 C-24.14583984 128.01564453 -24.14583984 128.01564453 -25 129 C-25.99 129 -26.98 129 -28 129 C-28.268125 129.70125 -28.53625 130.4025 -28.8125 131.125 C-31.08276225 136.6214244 -33.78529094 141.31501788 -37.375 146.0625 C-38.12523437 147.06410156 -38.87546875 148.06570313 -39.6484375 149.09765625 C-41.94422667 151.93116348 -44.41753757 154.4306023 -47 157 C-47.8353125 158.3921875 -47.8353125 158.3921875 -48.6875 159.8125 C-49.120625 160.534375 -49.55375 161.25625 -50 162 C-50.66 162 -51.32 162 -52 162 C-52.10828125 162.73347656 -52.2165625 163.46695313 -52.328125 164.22265625 C-53.04209406 167.17400509 -54.0315872 168.95288768 -55.75 171.4375 C-56.28753906 172.21480469 -56.82507813 172.99210938 -57.37890625 173.79296875 C-58.76005053 175.67332181 -60.17715395 177.47339234 -61.6875 179.25 C-64.03798465 181.89189585 -64.03798465 181.89189585 -65.625 184.75 C-67 187 -67 187 -70 189 C-70.67441131 190.6635479 -71.3400321 192.33066942 -72 194 C-74 196.8125 -74 196.8125 -76 199 C-76.66 199 -77.32 199 -78 199 C-78 199.66 -78 200.32 -78 201 C-78.99 201 -79.98 201 -81 201 C-82.19165782 198.85501592 -83.38264394 196.7096974 -84.5703125 194.5625 C-85.46925257 192.95128501 -86.37917236 191.34609797 -87.3046875 189.75 C-90.00837508 185.04793465 -92.1018487 180.34690118 -94.0234375 175.27734375 C-95.01372833 172.75402654 -95.01372833 172.75402654 -97.1875 169.875 C-99.54995598 166.12765602 -99.69746199 163.38680115 -100 159 C-100.66 159 -101.32 159 -102 159 C-104.66464729 153.77729131 -105.32854177 150.9180497 -104 145 C-103.34 145 -102.68 145 -102 145 C-101.87625 144.443125 -101.7525 143.88625 -101.625 143.3125 C-100.58259226 139.45559136 -99.22047502 136.33071252 -97 133 C-96.34 133 -95.68 133 -95 133 C-94.505 131.02 -94.505 131.02 -94 129 C-93.34 129 -92.68 129 -92 129 C-91.73445313 128.27039063 -91.46890625 127.54078125 -91.1953125 126.7890625 C-90.002833 124.00661034 -88.63889462 121.82804414 -86.875 119.375 C-86.26011719 118.51777344 -85.64523438 117.66054688 -85.01171875 116.77734375 C-84.34785156 115.86082031 -83.68398437 114.94429688 -83 114 C-81.92685547 112.48599609 -81.92685547 112.48599609 -80.83203125 110.94140625 C-80.12433594 109.95011719 -79.41664062 108.95882812 -78.6875 107.9375 C-77.70330078 106.55884766 -77.70330078 106.55884766 -76.69921875 105.15234375 C-75 103 -75 103 -73 102 C-72.566875 101.0925 -72.13375 100.185 -71.6875 99.25 C-69.88124794 95.77129232 -67.8641441 93.64382532 -65 91 C-62.89131898 89.17895597 -62.89131898 89.17895597 -62.25 86.875 C-59.96147529 81.61139316 -56.33383305 77.30351866 -52.25 73.3125 C-49.90909836 71.20540224 -49.90909836 71.20540224 -49.09765625 68.69921875 C-46.58320967 62.51600671 -41.9289788 56.8861126 -37.1875 52.25 C-34.38772985 49.37023642 -33.395385 46.74550711 -32 43 C-31.34 43 -30.68 43 -30 43 C-30 42.34 -30 41.68 -30 41 C-29.34 40.67 -28.68 40.34 -28 40 C-27.566875 39.0925 -27.13375 38.185 -26.6875 37.25 C-24.87051529 33.75062205 -22.84187282 31.70324488 -20 29 C-16.77642179 25.20755504 -13.88422865 21.41414985 -12.16015625 16.70703125 C-10.80380491 13.54221146 -9.07134172 10.98192228 -7.0625 8.1875 C-6.37285156 7.21167969 -5.68320313 6.23585937 -4.97265625 5.23046875 C-4.32167969 4.49441406 -3.67070312 3.75835937 -3 3 C-2.01 3 -1.02 3 0 3 C0 2.01 0 1.02 0 0 Z " fill="#6F2862" transform="translate(169,162)"/>
<path d="M0 0 C4 6.75 4 6.75 4 9 C5.32 9.66 6.64 10.32 8 11 C8 11.99 8 12.98 8 14 C9.32 14.66 10.64 15.32 12 16 C12 16.66 12 17.32 12 18 C12.99 18.33 13.98 18.66 15 19 C16.97265625 21.328125 16.97265625 21.328125 19.0625 24.25 C19.75472656 25.20390625 20.44695312 26.1578125 21.16015625 27.140625 C23 30 23 30 23.93359375 32.546875 C25.34394418 35.79119761 27.45582306 37.55018625 30 40 C32.00867907 42.34061312 33.91174023 44.75889239 35.8125 47.1875 C36.56563477 48.13012695 36.56563477 48.13012695 37.33398438 49.09179688 C41 53.75536777 41 53.75536777 41 56 C41.66 56 42.32 56 43 56 C43.598125 57.093125 44.19625 58.18625 44.8125 59.3125 C45.98072325 61.37237068 46.94489561 62.94489561 48.625 64.625 C50 66 50 66 50.875 68.375 C52.31014029 71.72366068 54.39540999 73.45460522 57 76 C58.57883452 77.99282198 60.08327424 80.02846444 61.58203125 82.08203125 C62.74873272 83.66013159 63.99016877 85.18270158 65.25 86.6875 C67.68660475 89.90729914 68.73432042 93.20296127 70 97 C71.485 97.495 71.485 97.495 73 98 C74.66952491 100.50428737 76.05919012 103.10851522 77.5 105.75 C78.86478689 108.29600708 78.86478689 108.29600708 82 109 C82.2165625 109.8971875 82.2165625 109.8971875 82.4375 110.8125 C83.20001094 113.7778203 84.82261706 114.82999802 87 117 C89.35862708 119.86575217 91.59157698 122.83111247 93.84570312 125.77929688 C96.03397606 128.60848657 98.18607218 131.18447727 100.734375 133.7109375 C102.7684922 135.76609729 103.75073595 137.06999611 104.8125 139.6875 C106.88375523 144.14738022 109.80641553 147.60075185 112.93359375 151.3671875 C114.97276598 153.96530108 116.67160683 156.61059218 118.375 159.4375 C120.95952136 163.65372379 123.83882651 167.1082397 127.25 170.6875 C131.40048763 175.0758738 133.14565009 178.33935292 135 184 C137.39583651 186.81331378 137.39583651 186.81331378 140 189 C143.25189739 191.8616697 144.99157771 195.19092325 147 199 C147 199.66 147 200.32 147 201 C147.66 201 148.32 201 149 201 C149.226875 201.556875 149.45375 202.11375 149.6875 202.6875 C150.92899796 205.13177943 150.92899796 205.13177943 153.18359375 207.09375 C156.76771025 210.60666318 159.50524011 214.71429336 162.375 218.8125 C166.17985501 224.24215554 170.04937378 229.35299301 174.60400391 234.18237305 C176.12091533 236.15743523 176.45613929 237.60486201 177 240 C178.11514393 241.14893617 179.23901682 242.29074109 180.40625 243.38671875 C183.93832715 246.96208116 186.93461867 251.0258835 190 255 C190.46277344 255.58394531 190.92554688 256.16789062 191.40234375 256.76953125 C193.96824014 260.23029542 194.40569925 262.7401579 194 267 C193.34 267 192.68 267 192 267 C191.88269531 267.73476563 191.76539063 268.46953125 191.64453125 269.2265625 C190.99934523 272.00281749 190.11593478 273.92499111 188.6875 276.375 C188.24019531 277.15617187 187.79289063 277.93734375 187.33203125 278.7421875 C186.52663909 280.10733902 185.713698 281.46812889 184.88671875 282.8203125 C182.98099288 285.98425893 181.62498999 288.98606663 180.5625 292.5 C179.35008679 296.41702731 177.63530821 299.21251483 175.12890625 302.4296875 C173.81710729 304.1176192 173.81710729 304.1176192 172.875 306.875 C172.58625 307.57625 172.2975 308.2775 172 309 C171.01 309.33 170.02 309.66 169 310 C169 310.66 169 311.32 169 312 C168.01 312 167.02 312 166 312 C164.7398468 310.30874176 163.48875103 308.60873662 162.31640625 306.85546875 C160.94336577 304.80200335 160.94336577 304.80200335 158.5625 302.625 C150 293.85365854 150 293.85365854 150 289 C149.01 288.67 148.02 288.34 147 288 C145.19996211 285.98395756 144.10673043 284.32019128 143.25 281.75 C141.65281201 278.23618642 139.31831465 275.88407233 136.73046875 273.05078125 C135.15643012 271.18538558 134.05166357 269.47031047 132.9375 267.3125 C131.16280036 263.83571376 131.16280036 263.83571376 127.9375 261.5 C124.99635008 258.99689369 124.2558837 257.47466431 122.96484375 253.9453125 C121.29213421 250.572805 118.59563564 248.06292656 116.046875 245.328125 C114.09138818 243.10394533 112.51848535 240.87397685 110.9375 238.375 C108.53071325 234.60414883 105.80840929 231.683315 102.5859375 228.6015625 C100.31107845 226.30429105 98.71597582 223.73483647 97 221 C95.84013595 219.32859213 94.672829 217.66233602 93.5 216 C91.52369337 213.19000514 89.56863595 210.37454483 87.6875 207.5 C86.09172833 204.96474335 86.09172833 204.96474335 84 203 C84 202.01 84 201.02 84 200 C83.34 200 82.68 200 82 200 C80.63636792 198.02053408 79.30581356 196.0180755 78 194 C77.484375 193.484375 76.96875 192.96875 76.4375 192.4375 C74.52112764 190.52112764 73.396276 188.32712666 72 186 C70.58382368 184.05979514 69.12805842 182.15252714 67.671875 180.2421875 C65.88575157 177.84677898 64.19178009 175.40031261 62.5 172.9375 C60.33711543 169.80637535 58.10251215 166.8953606 55.5625 164.0625 C53 161 53 161 53 158 C52.34 158 51.68 158 51 158 C48.70351351 155.4385343 48 154.52032428 48 151 C47.34 151 46.68 151 46 151 C44.29073188 148.99294997 42.69810977 146.9847099 41.125 144.875 C40.47337891 144.02035156 40.47337891 144.02035156 39.80859375 143.1484375 C37.74442454 140.42100671 35.7842069 137.67410838 33.89453125 134.8203125 C32.2412599 132.35915391 30.54405448 130.19664238 28.5625 128 C27.95921875 127.32195312 27.3559375 126.64390625 26.734375 125.9453125 C26.16203125 125.30335938 25.5896875 124.66140625 25 124 C21.6800114 120.18748562 18.74504623 116.25039416 16 112 C12.93229526 107.28620979 9.64454097 102.79165531 6.25 98.3125 C2.6284251 93.51850854 -0.94846158 88.70379957 -4.4375 83.8125 C-7.04642412 80.2009728 -9.75561609 77.0690118 -13 74 C-16.08009951 70.47988628 -18.61607365 67.00933068 -21 63 C-21.515625 62.505 -22.03125 62.01 -22.5625 61.5 C-24 60 -24 60 -24.8125 57.75 C-26.23674342 54.45175208 -28.22837043 52.45269442 -30.7578125 49.94140625 C-32.65452455 46.97704811 -32.57129934 45.49667613 -32 42 C-30.29227237 38.64641336 -28.19568675 35.59544267 -26.0625 32.5 C-24.86274193 30.71390382 -23.6635256 28.92744363 -22.46484375 27.140625 C-21.57708252 25.83061523 -21.57708252 25.83061523 -20.67138672 24.49414062 C-18.79719828 21.69736745 -17.00217705 18.85886851 -15.22094727 16.00244141 C-5.21329061 0 -5.21329061 0 0 0 Z " fill="#E97E33" transform="translate(283,44)"/>
<path d="M0 0 C0.29648438 0.62777344 0.59296875 1.25554687 0.8984375 1.90234375 C1.89003961 4.0589474 1.89003961 4.0589474 3.625 5.5625 C5 7 5 7 5 10 C5.66 10 6.32 10 7 10 C7.53625 10.969375 8.0725 11.93875 8.625 12.9375 C10.80157337 16.78173569 13.28084523 20.37783037 15.828125 23.984375 C17 26 17 26 17 29 C17.66 29 18.32 29 19 29 C20.9713208 31.55010731 22.50144705 34.40654025 24.125 37.1875 C24.59292969 37.95642578 25.06085938 38.72535156 25.54296875 39.51757812 C25.98511719 40.26845703 26.42726562 41.01933594 26.8828125 41.79296875 C27.28902832 42.4789917 27.69524414 43.16501465 28.11376953 43.87182617 C29.18299322 46.43943579 29.25528606 48.24009858 29 51 C27.5 54.3125 27.5 54.3125 26 57 C25.34 57 24.68 57 24 57 C23.8453125 58.423125 23.8453125 58.423125 23.6875 59.875 C23 63 23 63 20 65 C18.98412667 66.65703928 17.98589867 68.32495326 17 70 C15.66012889 71.59272617 14.28436278 73.1559231 12.875 74.6875 C10.11427956 77.62192394 10.11427956 77.62192394 8 81 C7.34 81 6.68 81 6 81 C5.7834375 81.66 5.566875 82.32 5.34375 83 C3.53645329 87.03489498 1.07514635 90.42001644 -1.5 94 C-2.30195801 95.12559326 -2.30195801 95.12559326 -3.12011719 96.27392578 C-7.18051096 101.94040409 -11.37816961 107.48472384 -15.67578125 112.97265625 C-18.6931254 116.9028104 -21.51352424 120.96029331 -24.30859375 125.05078125 C-24.86675781 125.69402344 -25.42492187 126.33726562 -26 127 C-26.99 127 -27.98 127 -29 127 C-29.268125 127.70125 -29.53625 128.4025 -29.8125 129.125 C-32.08276225 134.6214244 -34.78529094 139.31501788 -38.375 144.0625 C-39.12523437 145.06410156 -39.87546875 146.06570313 -40.6484375 147.09765625 C-42.94422667 149.93116348 -45.41753757 152.4306023 -48 155 C-48.8353125 156.3921875 -48.8353125 156.3921875 -49.6875 157.8125 C-50.120625 158.534375 -50.55375 159.25625 -51 160 C-51.66 160 -52.32 160 -53 160 C-53.10828125 160.73347656 -53.2165625 161.46695313 -53.328125 162.22265625 C-54.04209406 165.17400509 -55.0315872 166.95288768 -56.75 169.4375 C-57.28753906 170.21480469 -57.82507813 170.99210938 -58.37890625 171.79296875 C-59.76005053 173.67332181 -61.17715395 175.47339234 -62.6875 177.25 C-65.03798465 179.89189585 -65.03798465 179.89189585 -66.625 182.75 C-68 185 -68 185 -71 187 C-71.67441131 188.6635479 -72.3400321 190.33066942 -73 192 C-75 194.8125 -75 194.8125 -77 197 C-77.66 197 -78.32 197 -79 197 C-79 197.66 -79 198.32 -79 199 C-79.99 199 -80.98 199 -82 199 C-83.19165782 196.85501592 -84.38264394 194.7096974 -85.5703125 192.5625 C-86.46925257 190.95128501 -87.37917236 189.34609797 -88.3046875 187.75 C-91.00837508 183.04793465 -93.1018487 178.34690118 -95.0234375 173.27734375 C-96.01372833 170.75402654 -96.01372833 170.75402654 -98.1875 167.875 C-100.54995598 164.12765602 -100.69746199 161.38680115 -101 157 C-101.66 157 -102.32 157 -103 157 C-105.66464729 151.77729131 -106.32854177 148.9180497 -105 143 C-104.34 143 -103.68 143 -103 143 C-102.87625 142.443125 -102.7525 141.88625 -102.625 141.3125 C-101.58259226 137.45559136 -100.22047502 134.33071252 -98 131 C-97.34 131 -96.68 131 -96 131 C-95.505 129.02 -95.505 129.02 -95 127 C-94.34 127 -93.68 127 -93 127 C-92.73445313 126.27039063 -92.46890625 125.54078125 -92.1953125 124.7890625 C-91.002833 122.00661034 -89.63889462 119.82804414 -87.875 117.375 C-87.26011719 116.51777344 -86.64523438 115.66054688 -86.01171875 114.77734375 C-85.34785156 113.86082031 -84.68398437 112.94429688 -84 112 C-82.92685547 110.48599609 -82.92685547 110.48599609 -81.83203125 108.94140625 C-81.12433594 107.95011719 -80.41664062 106.95882812 -79.6875 105.9375 C-78.70330078 104.55884766 -78.70330078 104.55884766 -77.69921875 103.15234375 C-76 101 -76 101 -74 100 C-73.566875 99.0925 -73.13375 98.185 -72.6875 97.25 C-70.88124794 93.77129232 -68.8641441 91.64382532 -66 89 C-63.89131898 87.17895597 -63.89131898 87.17895597 -63.25 84.875 C-60.96147529 79.61139316 -57.33383305 75.30351866 -53.25 71.3125 C-50.90909836 69.20540224 -50.90909836 69.20540224 -50.09765625 66.69921875 C-47.58320967 60.51600671 -42.9289788 54.8861126 -38.1875 50.25 C-35.38772985 47.37023642 -34.395385 44.74550711 -33 41 C-32.34 41 -31.68 41 -31 41 C-31 40.34 -31 39.68 -31 39 C-30.34 38.67 -29.68 38.34 -29 38 C-28.566875 37.0925 -28.13375 36.185 -27.6875 35.25 C-25.87051529 31.75062205 -23.84187282 29.70324488 -21 27 C-18.64763138 24.29121189 -16.89027733 21.79568883 -15.1875 18.625 C-13.23829891 15.08586234 -10.72832949 12.61102047 -7.81640625 9.84375 C-4.85342772 6.83616749 -2.43758901 3.43762553 0 0 Z " fill="#5C2567" transform="translate(170,164)"/>
<path d="M0 0 C1.3522279 -0.00841714 2.70444406 -0.01894403 4.05664062 -0.03141785 C7.72206111 -0.05845079 11.38680054 -0.05376999 15.05227661 -0.04171729 C18.11402577 -0.03458181 21.17564929 -0.04308792 24.23738861 -0.05162269 C31.46045767 -0.07156928 38.68319569 -0.06601171 45.90625 -0.04394531 C53.35524312 -0.0215752 60.8033699 -0.03918839 68.25228119 -0.0769946 C74.65162506 -0.10823177 81.05070078 -0.11614383 87.45011139 -0.10504085 C91.27055647 -0.09855473 95.09050151 -0.10055075 98.91088867 -0.12436485 C102.50311873 -0.14561723 106.09412628 -0.13764159 109.6862793 -0.10727119 C111.63070334 -0.09792913 113.57519914 -0.11813158 115.51953125 -0.13922119 C123.83582485 -0.02836277 123.83582485 -0.02836277 126.76293945 1.97896385 C128.60475866 4.08769832 129.84375 5.80037721 129.84375 8.6628418 C130.50375 8.6628418 131.16375 8.6628418 131.84375 8.6628418 C131.92625 9.2403418 132.00875 9.8178418 132.09375 10.4128418 C132.68097278 12.75476808 132.68097278 12.75476808 134.51171875 14.26831055 C137.76726926 17.61111199 140.26702884 21.38794662 142.90625 25.2253418 C143.95684321 26.74940576 145.01013273 28.27161539 146.06640625 29.79174805 C146.52797119 30.46278564 146.98953613 31.13382324 147.46508789 31.82519531 C148.79422823 33.69126891 148.79422823 33.69126891 150.43139648 35.22900391 C151.84375 36.6628418 151.84375 36.6628418 153.21875 39.4753418 C154.55479532 42.09604607 155.62041617 43.66170275 157.53125 45.7878418 C159.84375 48.6628418 159.84375 48.6628418 159.84375 52.6628418 C91.20375 52.6628418 22.56375 52.6628418 -48.15625 52.6628418 C-47.49625 51.0128418 -46.83625 49.3628418 -46.15625 47.6628418 C-45.82625 46.6728418 -45.49625 45.6828418 -45.15625 44.6628418 C-44.49625 44.6628418 -43.83625 44.6628418 -43.15625 44.6628418 C-42.89585937 44.09178711 -42.63546875 43.52073242 -42.3671875 42.93237305 C-41.05948256 40.48148088 -39.533235 38.50398275 -37.78125 36.3503418 C-34.21817257 31.83221268 -31.45759587 27.14248364 -28.79296875 22.06518555 C-25.68227702 16.22158636 -22.48075169 10.69923934 -18.15625 5.6628418 C-17.56980713 4.81332443 -16.98336426 3.96380707 -16.37915039 3.08854675 C-12.07370643 -1.13468702 -5.61281216 -0.03794978 0 0 Z " fill="#D34E36" transform="translate(267.15625,362.337158203125)"/>
<path d="M0 0 C10.79633855 -0.23222689 21.59207827 -0.40964552 32.39041042 -0.51812172 C37.40529853 -0.57020038 42.41847187 -0.64077026 47.43237305 -0.75439453 C52.27602399 -0.86346718 57.11803157 -0.92292626 61.96281624 -0.94877243 C63.80613127 -0.9671773 65.64936141 -1.00312161 67.49197197 -1.05730057 C81.83284461 -1.46200103 81.83284461 -1.46200103 87.08596802 2.08184814 C90.33650425 5.56553073 92.50978713 8.99368831 94.59275818 13.2696228 C95.71283517 16.1023171 95.71283517 16.1023171 98 17 C98 17.66 98 18.32 98 19 C98.66 19 99.32 19 100 19 C100.680625 20.6396875 100.680625 20.6396875 101.375 22.3125 C103.89570735 27.40792985 107.64783553 31.13409158 111.515625 35.2421875 C120 44.66037736 120 44.66037736 120 49 C120.66 49 121.32 49 122 49 C122.495 49.94875 122.99 50.8975 123.5 51.875 C125.93582963 56.21713107 129.12084704 59.83512819 132.390625 63.5703125 C134.2797061 66.42227474 134.59534341 67.64921764 134 71 C132.57421875 73.3515625 132.57421875 73.3515625 130.6875 75.625 C130.07261719 76.38039063 129.45773437 77.13578125 128.82421875 77.9140625 C127 80 127 80 125.34375 81.60546875 C123.52268447 83.49535362 122.8609858 85.54950196 122 88 C121.34 88 120.68 88 120 88 C119.76925781 88.69351563 119.53851563 89.38703125 119.30078125 90.1015625 C117.73049767 93.60051269 115.56479538 96.40261952 113.1875 99.375 C112.28313314 100.52938341 111.37947949 101.68432595 110.4765625 102.83984375 C110.04633789 103.38753418 109.61611328 103.93522461 109.17285156 104.49951172 C105.57644666 109.10057427 102.46630168 113.67798059 100 119 C99.34 119 98.68 119 98 119 C97.71125 119.639375 97.4225 120.27875 97.125 120.9375 C96 123 96 123 94 124 C94.94933899 120.64566891 95.89748835 117.30753495 97 114 C95.71488126 111.96868328 94.38123963 109.96722008 93 108 C93 107.34 93 106.68 93 106 C92.34 106 91.68 106 91 106 C88.375 103.75 88.375 103.75 86 101 C86 99.68 86 98.36 86 97 C85.34 97 84.68 97 84 97 C83.34 95.35 82.68 93.7 82 92 C81.34 92 80.68 92 80 92 C78.44921875 90.2421875 78.44921875 90.2421875 76.6875 87.875 C74.54749625 85.03210798 72.39572445 82.24904129 70.0625 79.5625 C68 77 68 77 68 75 C67.38125 75.495 66.7625 75.99 66.125 76.5 C64 78 64 78 62 78 C61.773125 78.70125 61.54625 79.4025 61.3125 80.125 C59.66158712 83.74128535 57.7091165 86.08769976 55 89 C54.34 89 53.68 89 53 89 C52.34 90.32 51.68 91.64 51 93 C51 90 51 90 52.875 88.125 C53.57625 87.42375 54.2775 86.7225 55 86 C56.25436187 83.36777038 56.25436187 83.36777038 57 81 C57.66 81 58.32 81 59 81 C59.28875 80.21625 59.5775 79.4325 59.875 78.625 C61 76 61 76 63 74 C62.71303287 71.34555407 62.05566303 69.13811821 61.05859375 66.6640625 C60 64 60 64 59.30078125 61.32421875 C57.97814004 57.79543292 57.07041704 56.27262609 54 54 C46.33212951 52.50651343 34.65501079 51.56332614 28 56 C28.25652344 54.84242188 28.51304687 53.68484375 28.77734375 52.4921875 C29.42830606 47.28219287 27.43138995 44.31636794 24.5625 40.125 C20 33.1558321 20 33.1558321 20 31 C19.34 31 18.68 31 18 31 C17.4740625 29.824375 17.4740625 29.824375 16.9375 28.625 C14.91604523 24.51340024 12.14797536 20.93857549 9.42578125 17.26953125 C8 15 8 15 8 12 C7.34 12 6.68 12 6 12 C4.94228261 10.36935236 3.94726954 8.69719127 3 7 C2.34 6.01 1.68 5.02 1 4 C-2.96 8.29 -6.92 12.58 -11 17 C-11 13.01287817 -9.51081557 11.51490794 -7.1875 8.3125 C-6.47980469 7.31863281 -5.77210938 6.32476562 -5.04296875 5.30078125 C-4.36878906 4.54152344 -3.69460937 3.78226563 -3 3 C-2.01 3 -1.02 3 0 3 C0 2.01 0 1.02 0 0 Z " fill="#C45059" transform="translate(169,162)"/>
<path d="M0 0 C0.66 0 1.32 0 2 0 C1.34 1.98 0.68 3.96 0 6 C66.99 6 133.98 6 203 6 C202.67 4.68 202.34 3.36 202 2 C202.99 2.66 203.98 3.32 205 4 C205 5.32 205 6.64 205 8 C136.36 8 67.72 8 -3 8 C-2.34 6.35 -1.68 4.7 -1 3 C-0.67 2.01 -0.34 1.02 0 0 Z " fill="#D67870" transform="translate(222,407)"/>
<path d="M0 0 C1.35253137 -0.00757526 2.7050472 -0.01858272 4.05752563 -0.03274536 C7.71502029 -0.06057367 11.37062488 -0.0383817 15.02801371 -0.00532293 C18.86137127 0.02245954 22.69462364 0.0094492 26.52804565 0.00241089 C32.96236507 -0.00298584 39.39593667 0.02389531 45.83007812 0.0703125 C53.26440213 0.12357459 60.69747807 0.12701026 68.13192761 0.10353577 C75.29270243 0.08196667 82.45302665 0.09436134 89.61376572 0.12264633 C92.65760857 0.13415031 95.7011208 0.13401363 98.74496841 0.12451553 C102.32912533 0.11495921 105.91191789 0.13524085 109.49581528 0.17842484 C111.43537631 0.19483192 113.37511624 0.18187332 115.31469727 0.16802979 C123.60871185 0.30992187 123.60871185 0.30992187 126.53393173 2.32247543 C128.37541561 4.43091868 129.61669922 6.14110351 129.61669922 9.00341797 C128.62669922 8.67341797 127.63669922 8.34341797 126.61669922 8.00341797 C125.62669922 6.02341797 125.62669922 6.02341797 124.61669922 4.00341797 C56.30669922 3.50841797 56.30669922 3.50841797 -13.38330078 3.00341797 C-14.04330078 4.32341797 -14.70330078 5.64341797 -15.38330078 7.00341797 C-19.73112687 11.67733101 -19.73112687 11.67733101 -22.38330078 13.00341797 C-17.17777403 2.04476045 -11.96541983 -0.18400377 0 0 Z " fill="#E38466" transform="translate(267.38330078125,361.99658203125)"/>
<path d="M0 0 C10.8830837 -0.09264076 21.76607374 -0.16373496 32.64947128 -0.20724869 C37.7029792 -0.22813214 42.75621755 -0.25646371 47.80957031 -0.30175781 C52.68547468 -0.34518839 57.5611196 -0.3691314 62.43720245 -0.37950897 C64.29838394 -0.38690535 66.15955108 -0.40134866 68.02062225 -0.42292023 C70.62571504 -0.45191744 73.22973298 -0.45595759 75.83496094 -0.45410156 C76.99158234 -0.47567322 76.99158234 -0.47567322 78.17156982 -0.49768066 C81.81039482 -0.46958997 83.63426806 -0.29551824 86.51031494 2.02838135 C87.00191101 2.6790155 87.49350708 3.32964966 88 4 C87.67 4.66 87.34 5.32 87 6 C86.49893738 5.35125916 85.99787476 4.70251831 85.48162842 4.03411865 C82.17522344 1.32395464 79.38644061 1.42567968 75.29394531 1.45410156 C74.52282913 1.44376389 73.75171295 1.43342621 72.95722961 1.42277527 C70.41398205 1.39332889 67.87152969 1.39184776 65.328125 1.390625 C63.56262696 1.37564453 61.79714294 1.35891766 60.03167725 1.34051514 C55.3890926 1.29681418 50.74669701 1.2768365 46.10394287 1.26177979 C41.36475432 1.24221856 36.62577023 1.20024746 31.88671875 1.16015625 C22.59120886 1.08482446 13.29574466 1.03455099 4 1 C4.44472656 1.74765625 4.88945312 2.4953125 5.34765625 3.265625 C5.91355469 4.25046875 6.47945312 5.2353125 7.0625 6.25 C7.63097656 7.22453125 8.19945312 8.1990625 8.78515625 9.203125 C10 12 10 12 9.68359375 14.359375 C9.45800781 14.90078125 9.23242188 15.4421875 9 16 C8.67 14.68 8.34 13.36 8 12 C7.34 12 6.68 12 6 12 C4.94228261 10.36935236 3.94726954 8.69719127 3 7 C2.34 6.01 1.68 5.02 1 4 C-2.96 8.29 -6.92 12.58 -11 17 C-11 13.01287817 -9.51081557 11.51490794 -7.1875 8.3125 C-6.47980469 7.31863281 -5.77210938 6.32476562 -5.04296875 5.30078125 C-4.36878906 4.54152344 -3.69460937 3.78226563 -3 3 C-2.01 3 -1.02 3 0 3 C0 2.01 0 1.02 0 0 Z " fill="#D1767D" transform="translate(169,162)"/>
<path d="M0 0 C0.33 1.32 0.66 2.64 1 4 C0.10474609 4.14115234 0.10474609 4.14115234 -0.80859375 4.28515625 C-9.32440692 7.06304183 -15.48228326 22.77848375 -19.87426758 30.14990234 C-20.87404187 31.79299268 -21.9331146 33.3996719 -23 35 C-23.99 35 -24.98 35 -26 35 C-24.73347103 31.62382422 -23.28701624 28.64404553 -21.35546875 25.6015625 C-20.58686523 24.38726562 -20.58686523 24.38726562 -19.80273438 23.1484375 C-19.26970703 22.31570312 -18.73667969 21.48296875 -18.1875 20.625 C-17.40536133 19.3875 -17.40536133 19.3875 -16.60742188 18.125 C-5.08510045 0 -5.08510045 0 0 0 Z " fill="#F8C073" transform="translate(283,44)"/>
<path d="M0 0 C4.27662846 3.73437653 6.93207175 8.40246175 9.875 13.1875 C10.89206304 14.82754666 11.91029004 16.46687207 12.9296875 18.10546875 C13.43032715 18.9140332 13.9309668 19.72259766 14.44677734 20.55566406 C16.48729495 23.76686529 18.65097006 26.8875856 20.84179688 29.99780273 C22.6592832 33.13970943 22.70063706 35.4968147 22 39 C20 40.9375 20 40.9375 18 42 C18.25652344 40.84242188 18.51304687 39.68484375 18.77734375 38.4921875 C19.42830606 33.28219287 17.43138995 30.31636794 14.5625 26.125 C10 19.1558321 10 19.1558321 10 17 C9.34 17 8.68 17 8 17 C7.608125 16.154375 7.21625 15.30875 6.8125 14.4375 C5.11303607 11.21437875 3.24529088 8.54717969 0.98828125 5.7109375 C0 4 0 4 0 0 Z " fill="#97375D" transform="translate(179,176)"/>
<path d="M0 0 C0.66 0.33 1.32 0.66 2 1 C1.67 1.66 1.34 2.32 1 3 C0.34 3 -0.32 3 -1 3 C-1.26941406 3.7321875 -1.53882813 4.464375 -1.81640625 5.21875 C-2.96385859 7.91507365 -4.27415208 10.09597553 -5.9375 12.5 C-7.64813801 14.99311962 -9.24799635 17.43399361 -10.75 20.0625 C-11.1625 20.701875 -11.575 21.34125 -12 22 C-12.66 22 -13.32 22 -14 22 C-14.33 23.32 -14.66 24.64 -15 26 C-15.66 26 -16.32 26 -17 26 C-18.20628008 28.33214148 -19.1654738 30.49642139 -20 33 C-20.66 33 -21.32 33 -22 33 C-22.2475 33.5775 -22.495 34.155 -22.75 34.75 C-24.16683317 37.3002997 -25.87627537 39.01785701 -28 41 C-26.56900493 36.88682568 -24.54821899 33.78556175 -21.9375 30.3125 C-19.24079956 26.79692983 -19.24079956 26.79692983 -17 23 C-16.34 23 -15.68 23 -15 23 C-14.9175 22.4225 -14.835 21.845 -14.75 21.25 C-13.79289509 18.37868528 -12.1256206 17.1256206 -10 15 C-9.690625 14.21625 -9.38125 13.4325 -9.0625 12.625 C-7.63550142 9.0994741 -5.49006927 6.87315685 -3 4 C-2.67 3.34 -2.34 2.68 -2 2 C-1.34 2 -0.68 2 0 2 C0 1.34 0 0.68 0 0 Z " fill="#B17996" transform="translate(255,293)"/>
<path d="M0 0 C1.32 0 2.64 0 4 0 C5.03572896 1.74122549 6.0531252 3.49336595 7.0625 5.25 C7.63097656 6.22453125 8.19945312 7.1990625 8.78515625 8.203125 C10 11 10 11 9.68359375 13.359375 C9.45800781 13.90078125 9.23242188 14.4421875 9 15 C8.67 13.68 8.34 12.36 8 11 C7.34 11 6.68 11 6 11 C4.94228261 9.36935236 3.94726954 7.69719127 3 6 C2.34 5.01 1.68 4.02 1 3 C-2.96 7.29 -6.92 11.58 -11 16 C-11 12.01287817 -9.51081557 10.51490794 -7.1875 7.3125 C-6.47980469 6.31863281 -5.77210938 5.32476562 -5.04296875 4.30078125 C-4.36878906 3.54152344 -3.69460937 2.78226563 -3 2 C-2.01 2 -1.02 2 0 2 C0 1.34 0 0.68 0 0 Z " fill="#963860" transform="translate(169,163)"/>
<path d="M0 0 C0 0.99 0 1.98 0 3 C-0.66 3 -1.32 3 -2 3 C-2.23074219 3.69351563 -2.46148437 4.38703125 -2.69921875 5.1015625 C-4.26950233 8.60051269 -6.43520462 11.40261952 -8.8125 14.375 C-9.71686686 15.52938341 -10.62052051 16.68432595 -11.5234375 17.83984375 C-11.95366211 18.38753418 -12.38388672 18.93522461 -12.82714844 19.49951172 C-16.42355334 24.10057427 -19.53369832 28.67798059 -22 34 C-22.66 34 -23.32 34 -24 34 C-24.28875 34.639375 -24.5775 35.27875 -24.875 35.9375 C-26 38 -26 38 -28 39 C-27.5052727 34.54745429 -26.13186622 33.07023737 -23 30 C-21.73852495 28.35765133 -20.51118914 26.68871929 -19.3125 25 C-15.61907524 19.84027177 -11.82454433 14.7748883 -7.98046875 9.7265625 C-5.97245382 7.06185165 -5.97245382 7.06185165 -4.42578125 4.2734375 C-3 2 -3 2 0 0 Z " fill="#DB989D" transform="translate(291,247)"/>
<path d="M0 0 C1.32 0 2.64 0 4 0 C4.226875 0.556875 4.45375 1.11375 4.6875 1.6875 C5.969939 4.19672664 5.969939 4.19672664 8.5 6.4375 C10.9518394 8.95063538 11.96160131 10.69600416 13 14 C13.66 14 14.32 14 15 14 C15.66 15.65 16.32 17.3 17 19 C16.34 19 15.68 19 15 19 C13.44921875 17.2421875 13.44921875 17.2421875 11.6875 14.875 C9.54749625 12.03210798 7.39572445 9.24904129 5.0625 6.5625 C3 4 3 4 3 2 C1.68 2.99 0.36 3.98 -1 5 C-1.66 4.67 -2.32 4.34 -3 4 C-1.75 2 -1.75 2 0 0 Z " fill="#A33C5E" transform="translate(234,235)"/>
<path d="M0 0 C4.18482119 1.54428481 6.00078412 4.32934249 8.5625 7.875 C9.32691406 8.92429687 10.09132813 9.97359375 10.87890625 11.0546875 C11.92884766 12.51261719 11.92884766 12.51261719 13 14 C13.9964924 15.33595684 14.99486938 16.6705301 16 18 C15.67 18.66 15.34 19.32 15 20 C14.1646875 18.9171875 14.1646875 18.9171875 13.3125 17.8125 C11.06422758 14.98533386 11.06422758 14.98533386 8.5625 12.5625 C0.52173913 4.52173913 0.52173913 4.52173913 0 0 Z " fill="#F3B46F" transform="translate(264,108)"/>
<path d="M0 0 C0.99 0.66 1.98 1.32 3 2 C3.95881361 7.03377147 2.16526763 10.00159328 -0.5625 14.03125 C-2.60448226 16.82787788 -4.64547918 19.45457208 -7 22 C-7.66 22 -8.32 22 -9 22 C-9.66 23.32 -10.32 24.64 -11 26 C-11 23 -11 23 -9.125 21.125 C-8.42375 20.42375 -7.7225 19.7225 -7 19 C-5.74563813 16.36777038 -5.74563813 16.36777038 -5 14 C-4.34 14 -3.68 14 -3 14 C-2.71125 13.21625 -2.4225 12.4325 -2.125 11.625 C-1 9 -1 9 1 7 C0.67673447 3.40320934 0.67673447 3.40320934 0 0 Z " fill="#C18DA7" transform="translate(231,229)"/>
<path d="M0 0 C0.33 0.66 0.66 1.32 1 2 C-0.0309712 4.38393626 -1.11213951 6.64125913 -2.3125 8.9375 C-2.63412109 9.57107422 -2.95574219 10.20464844 -3.28710938 10.85742188 C-4.73491513 13.68465653 -6.23628392 16.35442588 -8 19 C-8.99 19 -9.98 19 -11 19 C-9.41467191 14.44435939 -7.00996919 10.68524231 -4.375 6.6875 C-3.95476562 6.04232422 -3.53453125 5.39714844 -3.1015625 4.73242188 C-2.07161759 3.15239276 -1.03634372 1.57583953 0 0 Z " fill="#F9C986" transform="translate(268,60)"/>
<path d="M0 0 C0 4.28459822 -1.76988768 7.39402178 -4 11 C-6.1875 12.8125 -6.1875 12.8125 -8 14 C-8.33 14.99 -8.66 15.98 -9 17 C-9.66 17 -10.32 17 -11 17 C-11 17.99 -11 18.98 -11 20 C-11.66 20 -12.32 20 -13 20 C-11.72728026 15.47623967 -10.08194039 12.46234259 -7.0625 8.875 C-6.37285156 8.04742187 -5.68320313 7.21984375 -4.97265625 6.3671875 C-3.99619141 5.19542969 -3.99619141 5.19542969 -3 4 C-1.99067315 2.67371305 -0.98708112 1.34292541 0 0 Z " fill="#A279A0" transform="translate(176,313)"/>
<path d="M0 0 C0.8125 1.625 0.8125 1.625 1 4 C-0.17478126 5.5337422 -1.36445032 7.06201189 -2.671875 8.484375 C-4.17437877 10.09251812 -4.17437877 10.09251812 -5.5 12.6875 C-7.28437056 15.43840461 -9.11331413 16.5176478 -12 18 C-10.66666667 15.33333333 -9.33333333 12.66666667 -8 10 C-7.34 10 -6.68 10 -6 10 C-6 9.34 -6 8.68 -6 8 C-5.34 8 -4.68 8 -4 8 C-3.71125 7.05125 -3.4225 6.1025 -3.125 5.125 C-2 2 -2 2 0 0 Z " fill="#A37299" transform="translate(192,291)"/>
<path d="M0 0 C1.02222656 0.03158203 2.04445313 0.06316406 3.09765625 0.09570312 C5.60975434 0.17787456 8.11586534 0.29265652 10.625 0.4375 C10.625 0.7675 10.625 1.0975 10.625 1.4375 C3.695 1.4375 -3.235 1.4375 -10.375 1.4375 C-11.035 2.7575 -11.695 4.0775 -12.375 5.4375 C-16.72282609 10.11141304 -16.72282609 10.11141304 -19.375 11.4375 C-14.72065096 1.75008404 -10.81798469 -0.63512039 0 0 Z " fill="#E07A60" transform="translate(264.375,363.5625)"/>
<path d="M0 0 C4.41632177 -0.14509751 8.83203193 -0.23400818 13.25 -0.3125 C14.50425781 -0.35439453 15.75851562 -0.39628906 17.05078125 -0.43945312 C18.85869141 -0.46362305 18.85869141 -0.46362305 20.703125 -0.48828125 C22.36843262 -0.52755737 22.36843262 -0.52755737 24.06738281 -0.56762695 C27 0 27 0 29.39355469 2.40551758 C31 5 31 5 31 7 C30.01 6.67 29.02 6.34 28 6 C27.34 4.68 26.68 3.36 26 2 C13.13 1.505 13.13 1.505 0 1 C0 0.67 0 0.34 0 0 Z " fill="#E1724F" transform="translate(366,364)"/>
<path d="M0 0 C0 3.37011649 -0.74284372 5.04427965 -2.1875 8.0625 C-2.59355469 8.94035156 -2.99960938 9.81820313 -3.41796875 10.72265625 C-5.32030454 13.46108036 -6.85268686 14.06374046 -10 15 C-9.67 13.68 -9.34 12.36 -9 11 C-8.34 11 -7.68 11 -7 11 C-6.67 9.68 -6.34 8.36 -6 7 C-5.34 7 -4.68 7 -4 7 C-3.71125 6.21625 -3.4225 5.4325 -3.125 4.625 C-2 2 -2 2 0 0 Z " fill="#8C71A1" transform="translate(124,384)"/>
<path d="M0 0 C0.33 0.66 0.66 1.32 1 2 C0.04060332 3.69036558 -0.96642853 5.35394174 -2 7 C-2.350625 7.886875 -2.70125 8.77375 -3.0625 9.6875 C-4 12 -4 12 -6 14 C-6.99 14 -7.98 14 -9 14 C-8.67 12.68 -8.34 11.36 -8 10 C-7.34 10 -6.68 10 -6 10 C-5.7525 9.278125 -5.505 8.55625 -5.25 7.8125 C-3.89016326 4.75286734 -2.17082246 2.5326262 0 0 Z " fill="#8F6A98" transform="translate(148,351)"/>
<path d="M0 0 C0.33 0.66 0.66 1.32 1 2 C0.505 3.093125 0.01 4.18625 -0.5 5.3125 C-2.04780827 9.11752867 -2.15373249 10.22414821 -1 14 C-1 14.99 -1 15.98 -1 17 C-3.66892418 14.83149911 -4.87861061 13.60694694 -5.5625 10.1875 C-4.80692651 5.90591691 -2.73215482 3.29810117 0 0 Z " fill="#F7B96A" transform="translate(256,79)"/>
<path d="M0 0 C3.61355789 2.63692062 6.14096864 4.89056226 8 9 C8.1875 12.3125 8.1875 12.3125 8 15 C7.34 15 6.68 15 6 15 C5.67 16.65 5.34 18.3 5 20 C3.74350181 17.48700363 4.18222863 16.47568409 4.6875 13.75 C5.18463062 9.93252783 5.10149819 9.18269674 3.125 5.625 C2.073125 4.325625 2.073125 4.325625 1 3 C0.67 2.01 0.34 1.02 0 0 Z " fill="#EDA082" transform="translate(469,296)"/>
<path d="M0 0 C0 0.99 0 1.98 0 3 C-0.66 3 -1.32 3 -2 3 C-2.1546875 4.423125 -2.1546875 4.423125 -2.3125 5.875 C-3 9 -3 9 -6 11 C-6.7425 12.2375 -6.7425 12.2375 -7.5 13.5 C-9 16 -9 16 -12 18 C-10 14 -8 10 -6 6 C-5.01 6 -4.02 6 -3 6 C-3 4.68 -3 3.36 -3 2 C-2.01 1.34 -1.02 0.68 0 0 Z " fill="#AD81A3" transform="translate(196,218)"/>
<path d="M0 0 C0.77734375 1.671875 0.77734375 1.671875 1 4 C-0.87109375 6.578125 -0.87109375 6.578125 -3.4375 9.25 C-4.70400391 10.58804688 -4.70400391 10.58804688 -5.99609375 11.953125 C-6.65738281 12.62859375 -7.31867188 13.3040625 -8 14 C-8 9.96618977 -6.40426438 8.50566363 -4 5.3125 C-3.2575 4.31863281 -2.515 3.32476562 -1.75 2.30078125 C-1.1725 1.54152344 -0.595 0.78226563 0 0 Z " fill="#B384A4" transform="translate(166,165)"/>
<path d="M0 0 C1 2 1 2 -0.0625 5.375 C-1.86015752 9.39872874 -4.20582043 10.89212246 -8 13 C-6.53181332 9.89257577 -4.79975 7.09528261 -2.875 4.25 C-2.33617187 3.45078125 -1.79734375 2.6515625 -1.2421875 1.828125 C-0.62730469 0.92320312 -0.62730469 0.92320312 0 0 Z " fill="#9174A0" transform="translate(133,371)"/>
<path d="M0 0 C3.88975419 3.59054233 6.89732195 7.73898882 10 12 C9.67 12.66 9.34 13.32 9 14 C7.62437146 12.71034824 6.29233607 11.37310707 5 10 C5 9.34 5 8.68 5 8 C4.34 8 3.68 8 3 8 C3 7.01 3 6.02 3 5 C2.34 5 1.68 5 1 5 C0.67 3.35 0.34 1.7 0 0 Z " fill="#F8C277" transform="translate(296,62)"/>
<path d="M0 0 C0.33 0.66 0.66 1.32 1 2 C0.071875 3.3303125 0.071875 3.3303125 -0.875 4.6875 C-3.04888714 7.80072446 -3.04888714 7.80072446 -4 10.8125 C-5 13 -5 13 -7.125 13.8125 C-7.74375 13.874375 -8.3625 13.93625 -9 14 C-7.45158425 10.65291949 -5.50894136 7.75332488 -3.375 4.75 C-2.74335937 3.85796875 -2.11171875 2.9659375 -1.4609375 2.046875 C-0.73777344 1.03367188 -0.73777344 1.03367188 0 0 Z " fill="#A987AC" transform="translate(129,217)"/>
<path d="M0 0 C0.33 0.66 0.66 1.32 1 2 C-1.54172993 7.38846744 -4.25673399 10.44255049 -9 14 C-8.67 12.68 -8.34 11.36 -8 10 C-7.34 10 -6.68 10 -6 10 C-6 9.34 -6 8.68 -6 8 C-5.34 7.67 -4.68 7.34 -4 7 C-2.96708324 5.01679982 -1.9662501 3.01652194 -1 1 C-0.67 0.67 -0.34 0.34 0 0 Z " fill="#AB81A5" transform="translate(145,195)"/>
<path d="M0 0 C6.70459519 5.0940919 6.70459519 5.0940919 7.9375 8.875 C7.958125 9.57625 7.97875 10.2775 8 11 C7.01 10.34 6.02 9.68 5 9 C5 8.34 5 7.68 5 7 C4.360625 6.773125 3.72125 6.54625 3.0625 6.3125 C1 5 1 5 0.25 2.375 C0.1675 1.59125 0.085 0.8075 0 0 Z " fill="#F3B388" transform="translate(379,174)"/>
<path d="M0 0 C1.66666667 1.66666667 3.33333333 3.33333333 5 5 C5.61875 5.515625 6.2375 6.03125 6.875 6.5625 C7.431875 7.2740625 7.431875 7.2740625 8 8 C7.6875 10.1875 7.6875 10.1875 7 12 C2.96950775 8.37255698 1.68106821 5.04320462 0 0 Z " fill="#F5B66C" transform="translate(256,96)"/>
<path d="M0 0 C0.66 0 1.32 0 2 0 C1.25 5.75 1.25 5.75 -1 8 C-1.99 8 -2.98 8 -4 8 C-2.66666667 5.33333333 -1.33333333 2.66666667 0 0 Z " fill="#966F9B" transform="translate(153,343)"/>
<path d="M0 0 C0.99 0.33 1.98 0.66 3 1 C3 1.99 3 2.98 3 4 C3.66 4 4.32 4 5 4 C5.66 6.31 6.32 8.62 7 11 C3.17330957 7.57611908 1.27721526 4.99275057 0 0 Z " fill="#F6CAA5" transform="translate(356,142)"/>
<path d="M0 0 C1.485 0.99 1.485 0.99 3 2 C3 2.66 3 3.32 3 4 C3.66 4 4.32 4 5 4 C6.6875 6.375 6.6875 6.375 8 9 C7.67 9.66 7.34 10.32 7 11 C0.28571429 4.85714286 0.28571429 4.85714286 0 0 Z " fill="#F7BF7A" transform="translate(321,96)"/>
<path d="M0 0 C0 3 0 3 -1 5 C-1.66 5 -2.32 5 -3 5 C-3.28875 5.639375 -3.5775 6.27875 -3.875 6.9375 C-5 9 -5 9 -7 10 C-6.84518205 7.29068581 -6.51827919 5.53415961 -4.59765625 3.5546875 C-3.10228292 2.32320358 -1.5537076 1.1570163 0 0 Z " fill="#D8AEBB" transform="translate(270,276)"/>
<path d="M0 0 C0.33 0.99 0.66 1.98 1 3 C-0.27358732 4.71275535 -1.61423077 6.37667033 -3 8 C-3.70885894 9.31138904 -4.39456452 10.63777017 -5 12 C-5.66 12 -6.32 12 -7 12 C-5.44298069 7.32894208 -2.91552627 3.91294315 0 0 Z " fill="#BA91AE" transform="translate(206,271)"/>
<path d="M0 0 C2 1.375 2 1.375 4 3 C4 3.66 4 4.32 4 5 C4.99 5.33 5.98 5.66 7 6 C7 6.99 7 7.98 7 9 C5 9 5 9 2.375 6.75 C0 4 0 4 0 0 Z " fill="#AA3E59" transform="translate(255,259)"/>
<path d="M0 0 C0 3.78176921 -1.07555275 5.76967782 -3 9 C-5.1875 10.375 -5.1875 10.375 -7 11 C-5.20974068 7.12110481 -3.03770253 3.03770253 0 0 Z " fill="#A88AB0" transform="translate(114,238)"/>
<path d="M0 0 C0.99 0 1.98 0 3 0 C3.33 1.32 3.66 2.64 4 4 C3.401875 4.12375 2.80375 4.2475 2.1875 4.375 C-0.26231348 4.95475985 -0.26231348 4.95475985 -3 7 C-2.38722388 4.03824877 -1.74627478 2.61941217 0 0 Z " fill="#F6AE4A" transform="translate(280,44)"/>
<path d="M0 0 C0.33 0.66 0.66 1.32 1 2 C0.29296875 3.91015625 0.29296875 3.91015625 -0.8125 6.0625 C-1.16957031 6.77535156 -1.52664062 7.48820312 -1.89453125 8.22265625 C-3 10 -3 10 -5 11 C-3.92289822 6.69159287 -2.96052484 3.36423277 0 0 Z " fill="#E29587" transform="translate(244,375)"/>
<path d="M0 0 C4.8 3.32307692 4.8 3.32307692 5.8125 6.75 C5.874375 7.4925 5.93625 8.235 6 9 C1.2 5.67692308 1.2 5.67692308 0.1875 2.25 C0.125625 1.5075 0.06375 0.765 0 0 Z " fill="#DD908F" transform="translate(257,168)"/>
<path d="M0 0 C0 3 0 3 -2.5 5.6875 C-3.325 6.450625 -4.15 7.21375 -5 8 C-4.67 5.69 -4.34 3.38 -4 1 C-2.68 0.67 -1.36 0.34 0 0 Z " fill="#907CA7" transform="translate(97,353)"/>
<path d="M0 0 C0.33 0.66 0.66 1.32 1 2 C0.525625 2.5775 0.05125 3.155 -0.4375 3.75 C-1.9484867 5.92582084 -2.54036151 7.42602448 -3 10 C-3.99 10 -4.98 10 -6 10 C-4.6302836 6.00499382 -2.74277578 3.19990508 0 0 Z " fill="#9D87AF" transform="translate(94,265)"/>
<path d="M0 0 C1.98 0.99 1.98 0.99 4 2 C4 2.66 4 3.32 4 4 C4.66 4 5.32 4 6 4 C6.33 5.65 6.66 7.3 7 9 C4.03595495 6.19195732 1.55500981 3.81684226 0 0 Z " fill="#DC9491" transform="translate(263,177)"/>
<path d="M0 0 C0.66 0.33 1.32 0.66 2 1 C0.6875 3.5 0.6875 3.5 -1 6 C-1.99 6 -2.98 6 -4 6 C-2.25 1.125 -2.25 1.125 0 0 Z " fill="#F8BD6B" transform="translate(261,73)"/>
</svg>
